<svg viewBox="0 0 24 24" fill="none" xmlns="http://www.w3.org/2000/svg" id="Linkedin--Streamline-Unicons">
  <desc>
    Linkedin Streamline Icon: https://streamlinehq.com
  </desc>
  <path d="M21.9606 0.2402H2.0394C1.8155 0.237 1.5931 0.2781 1.385 0.3609 1.177 0.4438 0.9873 0.5668 0.8267 0.7229 0.6662 0.8791 0.538 1.0653 0.4495 1.271c-0.0886 0.2057 -0.1357 0.4269 -0.1388 0.6508v20.1564c0.0031 0.2239 0.0502 0.4451 0.1388 0.6508s0.2167 0.3919 0.3772 0.5481c0.1606 0.1562 0.3503 0.2792 0.5583 0.362 0.2081 0.0829 0.4305 0.1239 0.6544 0.1207h19.9212c0.2239 0.0032 0.4463 -0.0378 0.6543 -0.1207 0.2082 -0.0828 0.3978 -0.2058 0.5584 -0.362 0.1605 -0.1562 0.2887 -0.3425 0.3772 -0.5481 0.0886 -0.2057 0.1357 -0.4269 0.1388 -0.6508V1.9218c-0.0031 -0.2239 -0.0502 -0.445 -0.1388 -0.6508 -0.0885 -0.2057 -0.2167 -0.3919 -0.3772 -0.5481 -0.1606 -0.1561 -0.3502 -0.2792 -0.5584 -0.362 -0.208 -0.0828 -0.4304 -0.1239 -0.6543 -0.1207ZM7.4019 19.9261h-3.528V9.3423h3.528v10.5838ZM5.6379 7.8605c-0.4865 0 -0.9531 -0.1932 -1.2972 -0.5373 -0.344 -0.344 -0.5373 -0.8106 -0.5373 -1.2972 0 -0.4865 0.1933 -0.9532 0.5373 -1.2972 0.3441 -0.3441 0.8107 -0.5373 1.2972 -0.5373 0.2584 -0.0293 0.52 -0.0037 0.7678 0.0751 0.2478 0.0788 0.4761 0.2091 0.67 0.3823 0.194 0.1732 0.3491 0.3854 0.4554 0.6227 0.1062 0.2373 0.1612 0.4944 0.1612 0.7544 0 0.26 -0.055 0.5171 -0.1612 0.7544 -0.1063 0.2373 -0.2614 0.4495 -0.4554 0.6227 -0.1939 0.1732 -0.4222 0.3035 -0.67 0.3823 -0.2478 0.0789 -0.5094 0.1045 -0.7678 0.0752ZM20.126 19.9261h-3.5279v-5.68c0 -1.4229 -0.5057 -2.3519 -1.7875 -2.3519 -0.3967 0.0029 -0.783 0.1273 -1.1068 0.3565s-0.5696 0.5521 -0.7042 0.9253c-0.0921 0.2764 -0.132 0.5675 -0.1176 0.8584v5.88H9.354V9.3305h3.528v1.4935c0.3204 -0.5561 0.7866 -1.0143 1.3481 -1.3251 0.5617 -0.3108 1.1974 -0.4625 1.8388 -0.4389 2.352 0 4.0571 1.517 4.0571 4.7745v6.0916Z" fill="#000000" stroke-width="1"></path>
</svg>